<?xml version="1.0" encoding="UTF-8" standalone="no"?>
<!-- Created with Inkscape (http://www.inkscape.org/) -->

<svg
   xmlns:dc="http://purl.org/dc/elements/1.1/"
   xmlns:cc="http://creativecommons.org/ns#"
   xmlns:rdf="http://www.w3.org/1999/02/22-rdf-syntax-ns#"
   xmlns:svg="http://www.w3.org/2000/svg"
   xmlns="http://www.w3.org/2000/svg"
   xmlns:sodipodi="http://sodipodi.sourceforge.net/DTD/sodipodi-0.dtd"
   xmlns:inkscape="http://www.inkscape.org/namespaces/inkscape"
   width="744.09448"
   height="1052.3622"
   id="svg2"
   version="1.1"
   inkscape:version="0.48.4 r9939"
   sodipodi:docname="Body.svg">
  <defs
     id="defs4" />
  <sodipodi:namedview
     id="base"
     pagecolor="#ffffff"
     bordercolor="#666666"
     borderopacity="1.0"
     inkscape:pageopacity="0.0"
     inkscape:pageshadow="2"
     inkscape:zoom="2.8"
     inkscape:cx="283.99789"
     inkscape:cy="700.98115"
     inkscape:document-units="px"
     inkscape:current-layer="layer1"
     showgrid="true"
     units="mm"
     showguides="true"
     inkscape:guide-bbox="true"
     inkscape:window-width="1920"
     inkscape:window-height="1018"
     inkscape:window-x="-8"
     inkscape:window-y="-8"
     inkscape:window-maximized="1">
    <inkscape:grid
       type="xygrid"
       id="grid2985"
       units="mm"
       empspacing="5"
       visible="true"
       enabled="true"
       snapvisiblegridlinesonly="true"
       spacingx="4mm"
       spacingy="4mm" />
    <inkscape:grid
       type="xygrid"
       id="grid3019"
       units="mm"
       empspacing="4"
       visible="true"
       enabled="true"
       snapvisiblegridlinesonly="true"
       spacingx="1mm"
       spacingy="1mm"
       color="#ff0000"
       opacity="0.1254902" />
  </sodipodi:namedview>
  <metadata
     id="metadata7">
    <rdf:RDF>
      <cc:Work
         rdf:about="">
        <dc:format>image/svg+xml</dc:format>
        <dc:type
           rdf:resource="http://purl.org/dc/dcmitype/StillImage" />
        <dc:title />
      </cc:Work>
    </rdf:RDF>
  </metadata>
  <g
     inkscape:label="Layer 1"
     inkscape:groupmode="layer"
     id="layer1"
     transform="translate(0,-2.5390623e-6)">
    <rect
       style="fill:#0000ff;fill-rule:evenodd;stroke:#000000;stroke-width:1px;stroke-linecap:butt;stroke-linejoin:miter;stroke-opacity:1"
       id="rect2989"
       width="0"
       height="28.346397"
       x="623.62201"
       y="287.00784"
       transform="translate(0,2.5390623e-6)" />
    <path
       style="fill:#999999;stroke:#000000;stroke-width:1px;stroke-linecap:butt;stroke-linejoin:miter;stroke-opacity:1"
       d="m 70.70878,244.65294 0.157362,-113.5506 113.228468,0.16477 56.85027,-0.16477 0,85.03937 24.80315,0 0,10.62992 46.06299,0 0,-95.66929 205.51181,0 0,85.03937 46.063,0 0,-49.6063 -10.62992,0 -0.15736,-35.2683 92.28334,-0.16477 0,368.50394 -333.07087,0 0,-88.58268 -70.86614,0 0,88.58268 -56.85027,0.16477 -113.38583,0 0,-113.38583 z"
       id="path2991"
       inkscape:connector-curvature="0"
       sodipodi:nodetypes="ccccccccccccccccccccccccc" />
    <rect
       style="fill:#4d4d4d"
       id="rect2993"
       width="28.346457"
       height="368.50394"
       x="184.25197"
       y="131.10234"
       ry="1.9383224e-006" />
    <path
       sodipodi:type="arc"
       style="fill:#cccccc"
       id="path3001"
       sodipodi:cx="170.07874"
       sodipodi:cy="102.75588"
       sodipodi:rx="14.173228"
       sodipodi:ry="14.173228"
       d="m 184.25196,102.75588 c 0,7.82766 -6.34557,14.17323 -14.17322,14.17323 -7.82766,0 -14.17323,-6.34557 -14.17323,-14.17323 0,-7.827656 6.34557,-14.173226 14.17323,-14.173226 7.82765,0 14.17322,6.34557 14.17322,14.173226 z"
       transform="translate(28.441178,70.794601)" />
    <path
       transform="translate(28.534833,353.99788)"
       sodipodi:type="arc"
       style="fill:#cccccc"
       id="path3001-1"
       sodipodi:cx="170.07874"
       sodipodi:cy="102.75588"
       sodipodi:rx="14.173228"
       sodipodi:ry="14.173228"
       d="m 184.25196,102.75588 c 0,7.82766 -6.34557,14.17323 -14.17322,14.17323 -7.82766,0 -14.17323,-6.34557 -14.17323,-14.17323 0,-7.827656 6.34557,-14.173226 14.17323,-14.173226 7.82765,0 14.17322,6.34557 14.17322,14.173226 z" />
    <path
       style="fill:none;stroke:#000000;stroke-width:1px;stroke-linecap:butt;stroke-linejoin:miter;stroke-opacity:1"
       d="m 170.07874,457.08659 56.69291,0"
       id="path3021"
       inkscape:connector-curvature="0"
       sodipodi:nodetypes="cc" />
    <path
       style="fill:none;stroke:#000000;stroke-width:1px;stroke-linecap:butt;stroke-linejoin:miter;stroke-opacity:1"
       d="m 170.41422,173.52247 56.69291,0"
       id="path3023"
       inkscape:connector-curvature="0" />
    <path
       style="fill:none;stroke:#000000;stroke-width:1.95394278px;stroke-linecap:butt;stroke-linejoin:miter;stroke-opacity:1"
       d="m 650.18074,315.07619 -595.230471,0"
       id="path3029"
       inkscape:connector-curvature="0" />
    <path
       sodipodi:type="arc"
       style="fill:#cccccc"
       id="path3001-0"
       sodipodi:cx="170.07874"
       sodipodi:cy="102.75588"
       sodipodi:rx="14.173228"
       sodipodi:ry="14.173228"
       d="m 184.25196,102.75588 c 0,7.82766 -6.34557,14.17323 -14.17322,14.17323 -7.82766,0 -14.17323,-6.34557 -14.17323,-14.17323 0,-7.827656 6.34557,-14.173226 14.17323,-14.173226 7.82765,0 14.17322,6.34557 14.17322,14.173226 z"
       transform="matrix(0.98663652,0,0,1,455.82724,42.409178)" />
    <path
       style="fill:none;stroke:#000000;stroke-width:1.00327754px;stroke-linecap:butt;stroke-linejoin:miter;stroke-opacity:1"
       d="m 623.63219,116.82189 0,57.06516"
       id="path3025-4"
       inkscape:connector-curvature="0" />
    <path
       sodipodi:type="arc"
       style="fill:#cccccc"
       id="path3001-8"
       sodipodi:cx="170.07874"
       sodipodi:cy="102.75588"
       sodipodi:rx="14.173228"
       sodipodi:ry="14.173228"
       d="m 184.25196,102.75588 c 0,7.82766 -6.34557,14.17323 -14.17322,14.17323 -7.82766,0 -14.17323,-6.34557 -14.17323,-14.17323 0,-7.827656 6.34557,-14.173226 14.17323,-14.173226 7.82765,0 14.17322,6.34557 14.17322,14.173226 z"
       transform="translate(396.52188,42.762398)" />
    <path
       style="fill:none;stroke:#000000;stroke-width:1.34039748px;stroke-linecap:butt;stroke-linejoin:miter;stroke-opacity:1"
       d="m 542.50275,145.392 101.85819,0"
       id="path3023-8"
       inkscape:connector-curvature="0" />
    <path
       style="fill:none;stroke:#000000;stroke-width:1px;stroke-linecap:butt;stroke-linejoin:miter;stroke-opacity:1"
       d="m 566.78908,117.04555 0,56.69292"
       id="path3025-2"
       inkscape:connector-curvature="0" />
    <path
       sodipodi:type="arc"
       style="fill:#cccccc"
       id="path3001-0-4"
       sodipodi:cx="170.07874"
       sodipodi:cy="102.75588"
       sodipodi:rx="14.173228"
       sodipodi:ry="14.173228"
       d="m 184.25196,102.75588 c 0,7.82766 -6.34557,14.17323 -14.17322,14.17323 -7.82766,0 -14.17323,-6.34557 -14.17323,-14.17323 0,-7.827656 6.34557,-14.173226 14.17323,-14.173226 7.82765,0 14.17322,6.34557 14.17322,14.173226 z"
       transform="translate(453.00389,382.98555)" />
    <path
       style="fill:none;stroke:#000000;stroke-width:1px;stroke-linecap:butt;stroke-linejoin:miter;stroke-opacity:1"
       d="m 623.14482,456.38482 0,56.69292"
       id="path3025-4-5"
       inkscape:connector-curvature="0" />
    <path
       sodipodi:type="arc"
       style="fill:#cccccc"
       id="path3001-8-1"
       sodipodi:cx="170.07874"
       sodipodi:cy="102.75588"
       sodipodi:rx="14.173228"
       sodipodi:ry="14.173228"
       d="m 184.25196,102.75588 c 0,7.82766 -6.34557,14.17323 -14.17322,14.17323 -7.82766,0 -14.17323,-6.34557 -14.17323,-14.17323 0,-7.827656 6.34557,-14.173226 14.17323,-14.173226 7.82765,0 14.17322,6.34557 14.17322,14.173226 z"
       transform="translate(396.91839,382.83369)" />
    <path
       style="fill:none;stroke:#000000;stroke-width:1.38812447px;stroke-linecap:butt;stroke-linejoin:miter;stroke-opacity:1"
       d="m 538.5513,485.20442 109.24098,0"
       id="path3023-8-7"
       inkscape:connector-curvature="0" />
    <path
       style="fill:none;stroke:#000000;stroke-width:1px;stroke-linecap:butt;stroke-linejoin:miter;stroke-opacity:1"
       d="m 567.05932,456.23296 0,56.69292"
       id="path3025-2-1"
       inkscape:connector-curvature="0" />
    <path
       sodipodi:type="arc"
       style="fill:#ffff84;fill-opacity:1"
       id="path3022"
       sodipodi:cx="244.48819"
       sodipodi:cy="233.85825"
       sodipodi:rx="7.0866141"
       sodipodi:ry="7.0866141"
       d="m 251.5748,233.85825 c 0,3.91382 -3.17278,7.08661 -7.08661,7.08661 -3.91383,0 -7.08661,-3.17279 -7.08661,-7.08661 0,-3.91383 3.17278,-7.08662 7.08661,-7.08662 3.91383,0 7.08661,3.17279 7.08661,7.08662 z"
       transform="translate(10.373551,-4.0241999)" />
    <path
       sodipodi:type="arc"
       style="fill:#ffff84;fill-opacity:1"
       id="path3024"
       sodipodi:cx="527.95276"
       sodipodi:cy="233.85825"
       sodipodi:rx="7.0866141"
       sodipodi:ry="7.0866141"
       d="m 535.03937,233.85825 c 0,3.91382 -3.17278,7.08661 -7.08661,7.08661 -3.91383,0 -7.08662,-3.17279 -7.08662,-7.08661 0,-3.91383 3.17279,-7.08662 7.08662,-7.08662 3.91383,0 7.08661,3.17279 7.08661,7.08662 z"
       transform="translate(-7.1612552,-3.8979309)" />
    <path
       sodipodi:type="arc"
       style="fill:#ffff84;fill-opacity:1"
       id="path3024-1"
       sodipodi:cx="527.95276"
       sodipodi:cy="233.85825"
       sodipodi:rx="7.0866141"
       sodipodi:ry="7.0866141"
       d="m 535.03937,233.85825 c 0,3.91382 -3.17278,7.08661 -7.08661,7.08661 -3.91383,0 -7.08662,-3.17279 -7.08662,-7.08661 0,-3.91383 3.17279,-7.08662 7.08662,-7.08662 3.91383,0 7.08661,3.17279 7.08661,7.08662 z"
       transform="translate(-10.655124,166.33112)" />
    <path
       sodipodi:type="arc"
       style="fill:#7dff7d;fill-opacity:1"
       id="path3022-7"
       sodipodi:cx="244.48819"
       sodipodi:cy="233.85825"
       sodipodi:rx="7.0866141"
       sodipodi:ry="7.0866141"
       d="m 251.5748,233.85825 c 0,3.91382 -3.17278,7.08661 -7.08661,7.08661 -3.91383,0 -7.08661,-3.17279 -7.08661,-7.08661 0,-3.91383 3.17278,-7.08662 7.08661,-7.08662 3.91383,0 7.08661,3.17279 7.08661,7.08662 z"
       transform="translate(10.693607,134.56302)" />
    <path
       sodipodi:type="arc"
       style="fill:#7dff7d;fill-opacity:1"
       id="path3022-7-4"
       sodipodi:cx="244.48819"
       sodipodi:cy="233.85825"
       sodipodi:rx="7.0866141"
       sodipodi:ry="7.0866141"
       d="m 251.5748,233.85825 c 0,3.91382 -3.17278,7.08661 -7.08661,7.08661 -3.91383,0 -7.08661,-3.17279 -7.08661,-7.08661 0,-3.91383 3.17278,-7.08662 7.08661,-7.08662 3.91383,0 7.08661,3.17279 7.08661,7.08662 z"
       transform="translate(205.31158,46.109694)" />
    <path
       sodipodi:type="arc"
       style="fill:#cccccc"
       id="path3001-09"
       sodipodi:cx="170.07874"
       sodipodi:cy="102.75588"
       sodipodi:rx="14.173228"
       sodipodi:ry="14.173228"
       d="m 184.25196,102.75588 c 0,7.82766 -6.34557,14.17323 -14.17322,14.17323 -7.82766,0 -14.17323,-6.34557 -14.17323,-14.17323 0,-7.827656 6.34557,-14.173226 14.17323,-14.173226 7.82765,0 14.17322,6.34557 14.17322,14.173226 z"
       transform="translate(27.85458,99.53731)" />
    <path
       style="fill:none;stroke:#000000;stroke-width:1px;stroke-linecap:butt;stroke-linejoin:miter;stroke-opacity:1"
       d="m 169.82762,202.26518 56.69291,0"
       id="path3023-4"
       inkscape:connector-curvature="0" />
    <path
       sodipodi:type="arc"
       style="fill:#999999"
       id="path3001-88"
       sodipodi:cx="170.07874"
       sodipodi:cy="102.75588"
       sodipodi:rx="14.173228"
       sodipodi:ry="14.173228"
       d="m 184.25196,102.75588 c 0,7.82766 -6.34557,14.17323 -14.17322,14.17323 -7.82766,0 -14.17323,-6.34557 -14.17323,-14.17323 0,-7.827656 6.34557,-14.173226 14.17323,-14.173226 7.82765,0 14.17322,6.34557 14.17322,14.173226 z"
       transform="translate(27.823483,127.42533)" />
    <path
       style="fill:none;stroke:#000000;stroke-width:1px;stroke-linecap:butt;stroke-linejoin:miter;stroke-opacity:1"
       d="m 169.79653,230.1532 56.69291,0"
       id="path3023-2"
       inkscape:connector-curvature="0" />
    <path
       sodipodi:type="arc"
       style="fill:#cccccc"
       id="path3001-4"
       sodipodi:cx="170.07874"
       sodipodi:cy="102.75588"
       sodipodi:rx="14.173228"
       sodipodi:ry="14.173228"
       d="m 184.25196,102.75588 c 0,7.82766 -6.34557,14.17323 -14.17322,14.17323 -7.82766,0 -14.17323,-6.34557 -14.17323,-14.17323 0,-7.827656 6.34557,-14.173226 14.17323,-14.173226 7.82765,0 14.17322,6.34557 14.17322,14.173226 z"
       transform="translate(28.124559,156.06319)" />
    <path
       style="fill:none;stroke:#000000;stroke-width:1px;stroke-linecap:butt;stroke-linejoin:miter;stroke-opacity:1"
       d="m 170.0976,258.79106 56.69291,0"
       id="path3023-5"
       inkscape:connector-curvature="0" />
    <path
       sodipodi:type="arc"
       style="fill:#cccccc"
       id="path3001-5"
       sodipodi:cx="170.07874"
       sodipodi:cy="102.75588"
       sodipodi:rx="14.173228"
       sodipodi:ry="14.173228"
       d="m 184.25196,102.75588 c 0,7.82766 -6.34557,14.17323 -14.17322,14.17323 -7.82766,0 -14.17323,-6.34557 -14.17323,-14.17323 0,-7.827656 6.34557,-14.173226 14.17323,-14.173226 7.82765,0 14.17322,6.34557 14.17322,14.173226 z"
       transform="translate(28.369324,184.33779)" />
    <path
       style="fill:none;stroke:#000000;stroke-width:1px;stroke-linecap:butt;stroke-linejoin:miter;stroke-opacity:1"
       d="m 170.34236,287.06566 56.69291,0"
       id="path3023-1"
       inkscape:connector-curvature="0" />
    <path
       sodipodi:type="arc"
       style="fill:#cccccc"
       id="path3001-7"
       sodipodi:cx="170.07874"
       sodipodi:cy="102.75588"
       sodipodi:rx="14.173228"
       sodipodi:ry="14.173228"
       d="m 184.25196,102.75588 c 0,7.82766 -6.34557,14.17323 -14.17322,14.17323 -7.82766,0 -14.17323,-6.34557 -14.17323,-14.17323 0,-7.827656 6.34557,-14.173226 14.17323,-14.173226 7.82765,0 14.17322,6.34557 14.17322,14.173226 z"
       transform="translate(28.140105,212.50356)" />
    <path
       style="fill:none;stroke:#000000;stroke-width:1px;stroke-linecap:butt;stroke-linejoin:miter;stroke-opacity:1"
       d="m 170.11314,315.23143 56.69291,0"
       id="path3023-11"
       inkscape:connector-curvature="0" />
    <path
       sodipodi:type="arc"
       style="fill:#cccccc"
       id="path3001-52"
       sodipodi:cx="170.07874"
       sodipodi:cy="102.75588"
       sodipodi:rx="14.173228"
       sodipodi:ry="14.173228"
       d="m 184.25196,102.75588 c 0,7.82766 -6.34557,14.17323 -14.17322,14.17323 -7.82766,0 -14.17323,-6.34557 -14.17323,-14.17323 0,-7.827656 6.34557,-14.173226 14.17323,-14.173226 7.82765,0 14.17322,6.34557 14.17322,14.173226 z"
       transform="translate(28.009515,240.91974)" />
    <path
       style="fill:none;stroke:#000000;stroke-width:1px;stroke-linecap:butt;stroke-linejoin:miter;stroke-opacity:1"
       d="m 169.98255,343.64761 56.69291,0"
       id="path3023-7"
       inkscape:connector-curvature="0" />
    <path
       sodipodi:type="arc"
       style="fill:#cccccc"
       id="path3001-6"
       sodipodi:cx="170.07874"
       sodipodi:cy="102.75588"
       sodipodi:rx="14.173228"
       sodipodi:ry="14.173228"
       d="m 184.25196,102.75588 c 0,7.82766 -6.34557,14.17323 -14.17322,14.17323 -7.82766,0 -14.17323,-6.34557 -14.17323,-14.17323 0,-7.827656 6.34557,-14.173226 14.17323,-14.173226 7.82765,0 14.17322,6.34557 14.17322,14.173226 z"
       transform="translate(28.159965,269.38009)" />
    <path
       style="fill:none;stroke:#000000;stroke-width:1px;stroke-linecap:butt;stroke-linejoin:miter;stroke-opacity:1"
       d="m 170.133,372.10796 56.69291,0"
       id="path3023-14"
       inkscape:connector-curvature="0" />
    <path
       sodipodi:type="arc"
       style="fill:#999999"
       id="path3001-2"
       sodipodi:cx="170.07874"
       sodipodi:cy="102.75588"
       sodipodi:rx="14.173228"
       sodipodi:ry="14.173228"
       d="m 184.25196,102.75588 c 0,7.82766 -6.34557,14.17323 -14.17322,14.17323 -7.82766,0 -14.17323,-6.34557 -14.17323,-14.17323 0,-7.827656 6.34557,-14.173226 14.17323,-14.173226 7.82765,0 14.17322,6.34557 14.17322,14.173226 z"
       transform="translate(28.037637,297.88543)" />
    <path
       style="fill:none;stroke:#000000;stroke-width:1px;stroke-linecap:butt;stroke-linejoin:miter;stroke-opacity:1"
       d="m 170.01068,400.6133 56.69291,0"
       id="path3023-3"
       inkscape:connector-curvature="0" />
    <path
       sodipodi:type="arc"
       style="fill:#cccccc"
       id="path3001-22"
       sodipodi:cx="170.07874"
       sodipodi:cy="102.75588"
       sodipodi:rx="14.173228"
       sodipodi:ry="14.173228"
       d="m 184.25196,102.75588 c 0,7.82766 -6.34557,14.17323 -14.17322,14.17323 -7.82766,0 -14.17323,-6.34557 -14.17323,-14.17323 0,-7.827656 6.34557,-14.173226 14.17323,-14.173226 7.82765,0 14.17322,6.34557 14.17322,14.173226 z"
       transform="translate(28.24433,326.23189)" />
    <path
       style="fill:none;stroke:#000000;stroke-width:1px;stroke-linecap:butt;stroke-linejoin:miter;stroke-opacity:1"
       d="m 170.21737,428.95975 56.69291,0"
       id="path3023-16"
       inkscape:connector-curvature="0" />
    <path
       style="fill:none;stroke:#000000;stroke-width:1px;stroke-linecap:butt;stroke-linejoin:miter;stroke-opacity:1"
       d="m 198.49282,145.35459 -0.0676,340.07846"
       id="path3025"
       inkscape:connector-curvature="0"
       sodipodi:nodetypes="cc" />
    <path
       style="fill:none;stroke:#000000;stroke-width:0.5;stroke-linecap:butt;stroke-linejoin:miter;stroke-miterlimit:4;stroke-opacity:1;stroke-dasharray:none"
       d="m 243.99295,229.99488 21.51611,0"
       id="path3023-2-8"
       inkscape:connector-curvature="0" />
    <path
       style="fill:none;stroke:#000000;stroke-width:0.61605215px;stroke-linecap:butt;stroke-linejoin:miter;stroke-opacity:1"
       d="m 244.5825,368.59755 21.51611,0"
       id="path3023-2-8-5"
       inkscape:connector-curvature="0" />
    <path
       style="fill:none;stroke:#000000;stroke-width:0.61605215px;stroke-linecap:butt;stroke-linejoin:miter;stroke-opacity:1"
       d="m 506.52685,399.98622 21.51611,0"
       id="path3023-2-8-7"
       inkscape:connector-curvature="0" />
    <path
       style="fill:none;stroke:#000000;stroke-width:0.61605215px;stroke-linecap:butt;stroke-linejoin:miter;stroke-opacity:1"
       d="m 439.17698,280.09072 21.51611,0"
       id="path3023-2-8-6"
       inkscape:connector-curvature="0" />
    <path
       style="opacity:0.98999999;fill:none;stroke:#000000;stroke-width:0.5;stroke-linecap:butt;stroke-linejoin:miter;stroke-miterlimit:4;stroke-opacity:1;stroke-dasharray:none"
       d="m 255.04031,219.66336 0,21.25984"
       id="path3223"
       inkscape:connector-curvature="0" />
    <path
       style="opacity:0.98999999;fill:none;stroke:#000000;stroke-width:0.5;stroke-linecap:butt;stroke-linejoin:miter;stroke-miterlimit:4;stroke-opacity:1;stroke-dasharray:none"
       d="m 255.03738,358.01654 0,21.25985"
       id="path3223-1"
       inkscape:connector-curvature="0" />
    <path
       style="opacity:0.98999999;fill:none;stroke:#000000;stroke-width:0.5;stroke-linecap:butt;stroke-linejoin:miter;stroke-miterlimit:4;stroke-opacity:1;stroke-dasharray:none"
       d="m 517.19863,389.27247 0,21.25984"
       id="path3223-8"
       inkscape:connector-curvature="0" />
    <path
       style="opacity:0.98999999;fill:none;stroke:#000000;stroke-width:0.5;stroke-linecap:butt;stroke-linejoin:miter;stroke-miterlimit:4;stroke-opacity:1;stroke-dasharray:none"
       d="m 520.69926,219.68108 0,21.25984"
       id="path3223-9"
       inkscape:connector-curvature="0" />
    <path
       style="opacity:0.98999999;fill:none;stroke:#000000;stroke-width:0.5;stroke-linecap:butt;stroke-linejoin:miter;stroke-miterlimit:4;stroke-opacity:1;stroke-dasharray:none"
       d="m 450.16593,269.76907 0,21.25984"
       id="path3223-2"
       inkscape:connector-curvature="0" />
    <path
       style="fill:none;stroke:#000000;stroke-width:0.61605215px;stroke-linecap:butt;stroke-linejoin:miter;stroke-opacity:1"
       d="m 509.81112,229.90341 21.51611,0"
       id="path3023-2-8-6-7"
       inkscape:connector-curvature="0" />
    <path
       sodipodi:type="arc"
       style="fill:#7dff7d;fill-opacity:1"
       id="path3022-7-4-0"
       sodipodi:cx="244.48819"
       sodipodi:cy="233.85825"
       sodipodi:rx="7.0866141"
       sodipodi:ry="7.0866141"
       d="m 251.5748,233.85825 a 7.0866141,7.0866141 0 1 1 -14.17322,0 7.0866141,7.0866141 0 1 1 14.17322,0 z"
       transform="translate(378.80346,113.12155)" />
    <path
       style="fill:none;stroke:#000000;stroke-width:0.61605215px;stroke-linecap:butt;stroke-linejoin:miter;stroke-opacity:1"
       d="m 612.66885,347.10258 21.51611,0"
       id="path3023-2-8-6-0"
       inkscape:connector-curvature="0" />
    <path
       style="opacity:0.98999999;fill:none;stroke:#000000;stroke-width:0.5;stroke-linecap:butt;stroke-linejoin:miter;stroke-miterlimit:4;stroke-opacity:1;stroke-dasharray:none"
       d="m 623.45307,336.42379 0,21.25984"
       id="path3223-2-3"
       inkscape:connector-curvature="0" />
    <path
       sodipodi:type="arc"
       style="fill:#7dff7d;fill-opacity:1"
       id="path3022-7-4-0-9"
       sodipodi:cx="244.48819"
       sodipodi:cy="233.85825"
       sodipodi:rx="7.0866141"
       sodipodi:ry="7.0866141"
       d="m 251.5748,233.85825 a 7.0866141,7.0866141 0 1 1 -14.17322,0 7.0866141,7.0866141 0 1 1 14.17322,0 z"
       transform="translate(378.83966,14.142544)" />
    <path
       style="fill:none;stroke:#000000;stroke-width:0.61605215px;stroke-linecap:butt;stroke-linejoin:miter;stroke-opacity:1"
       d="m 612.70505,248.12358 21.51611,0"
       id="path3023-2-8-6-0-1"
       inkscape:connector-curvature="0" />
    <path
       style="opacity:0.98999999;fill:none;stroke:#000000;stroke-width:0.5;stroke-linecap:butt;stroke-linejoin:miter;stroke-miterlimit:4;stroke-opacity:1;stroke-dasharray:none"
       d="m 623.48927,237.44479 0,21.25984"
       id="path3223-2-3-8"
       inkscape:connector-curvature="0" />
    <path
       sodipodi:type="arc"
       style="fill:#7dff7d;fill-opacity:1"
       id="path3022-7-4-0-9-7"
       sodipodi:cx="244.48819"
       sodipodi:cy="233.85825"
       sodipodi:rx="7.0866141"
       sodipodi:ry="7.0866141"
       d="m 251.5748,233.85825 c 0,3.91382 -3.17278,7.08661 -7.08661,7.08661 -3.91383,0 -7.08661,-3.17279 -7.08661,-7.08661 0,-3.91383 3.17278,-7.08662 7.08661,-7.08662 3.91383,0 7.08661,3.17279 7.08661,7.08662 z"
       transform="translate(350.63312,-88.628911)" />
    <path
       style="fill:none;stroke:#000000;stroke-width:0.61605215px;stroke-linecap:butt;stroke-linejoin:miter;stroke-opacity:1"
       d="m 584.49851,145.35212 21.51611,0"
       id="path3023-2-8-6-0-1-1"
       inkscape:connector-curvature="0" />
    <path
       style="opacity:0.98999999;fill:none;stroke:#000000;stroke-width:0.5;stroke-linecap:butt;stroke-linejoin:miter;stroke-miterlimit:4;stroke-opacity:1;stroke-dasharray:none"
       d="m 595.28273,134.67333 0,21.25984"
       id="path3223-2-3-8-1"
       inkscape:connector-curvature="0" />
    <path
       sodipodi:type="arc"
       style="fill:#7dff7d;fill-opacity:1"
       id="path3022-7-4-0-9-5"
       sodipodi:cx="244.48819"
       sodipodi:cy="233.85825"
       sodipodi:rx="7.0866141"
       sodipodi:ry="7.0866141"
       d="m 251.5748,233.85825 c 0,3.91382 -3.17278,7.08661 -7.08661,7.08661 -3.91383,0 -7.08661,-3.17279 -7.08661,-7.08661 0,-3.91383 3.17278,-7.08662 7.08661,-7.08662 3.91383,0 7.08661,3.17279 7.08661,7.08662 z"
       transform="translate(350.67881,251.61692)" />
    <path
       style="fill:none;stroke:#000000;stroke-width:0.61605215px;stroke-linecap:butt;stroke-linejoin:miter;stroke-opacity:1"
       d="m 584.5442,485.40855 21.51611,0"
       id="path3023-2-8-6-0-1-2"
       inkscape:connector-curvature="0" />
    <path
       style="opacity:0.98999999;fill:none;stroke:#000000;stroke-width:0.5;stroke-linecap:butt;stroke-linejoin:miter;stroke-miterlimit:4;stroke-opacity:1;stroke-dasharray:none"
       d="m 595.32842,474.91916 0,21.25984"
       id="path3223-2-3-8-7"
       inkscape:connector-curvature="0" />
    <path
       sodipodi:type="arc"
       style="fill:#7dff7d;fill-opacity:1"
       id="path3022-7-4-0-9-5-6"
       sodipodi:cx="244.48819"
       sodipodi:cy="233.85825"
       sodipodi:rx="7.0866141"
       sodipodi:ry="7.0866141"
       d="m 251.5748,233.85825 a 7.0866141,7.0866141 0 1 1 -14.17322,0 7.0866141,7.0866141 0 1 1 14.17322,0 z"
       transform="translate(-159.34979,17.654498)" />
    <path
       style="fill:none;stroke:#000000;stroke-width:0.61605215px;stroke-linecap:butt;stroke-linejoin:miter;stroke-opacity:1"
       d="m 74.515592,251.44614 21.51611,0"
       id="path3023-2-8-6-0-1-2-1"
       inkscape:connector-curvature="0" />
    <path
       style="opacity:0.98999999;fill:none;stroke:#000000;stroke-width:0.5;stroke-linecap:butt;stroke-linejoin:miter;stroke-miterlimit:4;stroke-opacity:1;stroke-dasharray:none"
       d="m 85.299812,240.95675 0,21.25984"
       id="path3223-2-3-8-7-4"
       inkscape:connector-curvature="0" />
    <path
       sodipodi:type="arc"
       style="fill:#7dff7d;fill-opacity:1"
       id="path3022-7-4-0-9-5-2"
       sodipodi:cx="244.48819"
       sodipodi:cy="233.85825"
       sodipodi:rx="7.0866141"
       sodipodi:ry="7.0866141"
       d="m 251.5748,233.85825 a 7.0866141,7.0866141 0 1 1 -14.17322,0 7.0866141,7.0866141 0 1 1 14.17322,0 z"
       transform="translate(-159.33116,144.98768)" />
    <path
       style="fill:none;stroke:#000000;stroke-width:0.61605215px;stroke-linecap:butt;stroke-linejoin:miter;stroke-opacity:1"
       d="m 74.534222,378.77931 21.516112,0"
       id="path3023-2-8-6-0-1-2-3"
       inkscape:connector-curvature="0" />
    <path
       style="opacity:0.98999999;fill:none;stroke:#000000;stroke-width:0.5;stroke-linecap:butt;stroke-linejoin:miter;stroke-miterlimit:4;stroke-opacity:1;stroke-dasharray:none"
       d="m 85.318442,368.28992 0,21.25984"
       id="path3223-2-3-8-7-2"
       inkscape:connector-curvature="0" />
    <path
       sodipodi:type="arc"
       style="fill:#7dff7d;fill-opacity:1"
       id="path3022-7-4-0-9-5-21"
       sodipodi:cx="244.48819"
       sodipodi:cy="233.85825"
       sodipodi:rx="7.0866141"
       sodipodi:ry="7.0866141"
       d="m 251.5748,233.85825 a 7.0866141,7.0866141 0 1 1 -14.17322,0 7.0866141,7.0866141 0 1 1 14.17322,0 z"
       transform="translate(-81.572739,144.97611)" />
    <path
       style="fill:none;stroke:#000000;stroke-width:0.61605215px;stroke-linecap:butt;stroke-linejoin:miter;stroke-opacity:1"
       d="m 152.29265,378.76774 21.51611,0"
       id="path3023-2-8-6-0-1-2-6"
       inkscape:connector-curvature="0" />
    <path
       style="opacity:0.98999999;fill:none;stroke:#000000;stroke-width:0.5;stroke-linecap:butt;stroke-linejoin:miter;stroke-miterlimit:4;stroke-opacity:1;stroke-dasharray:none"
       d="m 163.07687,368.27835 0,21.25984"
       id="path3223-2-3-8-7-8"
       inkscape:connector-curvature="0" />
    <path
       sodipodi:type="arc"
       style="fill:#7dff7d;fill-opacity:1"
       id="path3022-7-4-0-9-5-5"
       sodipodi:cx="244.48819"
       sodipodi:cy="233.85825"
       sodipodi:rx="7.0866141"
       sodipodi:ry="7.0866141"
       d="m 251.5748,233.85825 a 7.0866141,7.0866141 0 1 1 -14.17322,0 7.0866141,7.0866141 0 1 1 14.17322,0 z"
       transform="translate(-81.683456,17.574413)" />
    <path
       style="fill:none;stroke:#000000;stroke-width:0.61605215px;stroke-linecap:butt;stroke-linejoin:miter;stroke-opacity:1"
       d="m 152.18193,251.36605 21.51611,0"
       id="path3023-2-8-6-0-1-2-7"
       inkscape:connector-curvature="0" />
    <path
       style="opacity:0.98999999;fill:none;stroke:#000000;stroke-width:0.5;stroke-linecap:butt;stroke-linejoin:miter;stroke-miterlimit:4;stroke-opacity:1;stroke-dasharray:none"
       d="m 162.96615,240.87666 0,21.25984"
       id="path3223-2-3-8-7-6"
       inkscape:connector-curvature="0" />
    <rect
       style="opacity:0.98999999;fill:#999999;fill-opacity:1;stroke-width:0.5;stroke-miterlimit:4;stroke-dasharray:none"
       id="rect3058"
       width="510.51154"
       height="42.472137"
       x="70.812271"
       y="556.34674"
       ry="0" />
    <path
       sodipodi:type="arc"
       style="fill:#ffff84;fill-opacity:1"
       id="path3024-1-1"
       sodipodi:cx="527.95276"
       sodipodi:cy="233.85825"
       sodipodi:rx="7.0866141"
       sodipodi:ry="7.0866141"
       d="m 535.03937,233.85825 c 0,3.91382 -3.17278,7.08661 -7.08661,7.08661 -3.91383,0 -7.08662,-3.17279 -7.08662,-7.08661 0,-3.91383 3.17279,-7.08662 7.08662,-7.08662 3.91383,0 7.08661,3.17279 7.08661,7.08662 z"
       transform="translate(38.907201,343.86889)" />
    <path
       style="fill:none;stroke:#000000;stroke-width:0.61605215px;stroke-linecap:butt;stroke-linejoin:miter;stroke-opacity:1"
       d="m 556.26775,578.0597 21.51611,0"
       id="path3023-2-8-7-7"
       inkscape:connector-curvature="0" />
    <path
       style="opacity:0.98999999;fill:none;stroke:#000000;stroke-width:0.5;stroke-linecap:butt;stroke-linejoin:miter;stroke-miterlimit:4;stroke-opacity:1;stroke-dasharray:none"
       d="m 566.93953,567.34595 0,21.25984"
       id="path3223-8-4"
       inkscape:connector-curvature="0" />
    <path
       sodipodi:type="arc"
       style="fill:#ffff84;fill-opacity:1"
       id="path3024-1-0"
       sodipodi:cx="527.95276"
       sodipodi:cy="233.85825"
       sodipodi:rx="7.0866141"
       sodipodi:ry="7.0866141"
       d="m 535.03937,233.85825 c 0,3.91382 -3.17278,7.08661 -7.08661,7.08661 -3.91383,0 -7.08662,-3.17279 -7.08662,-7.08661 0,-3.91383 3.17279,-7.08662 7.08662,-7.08662 3.91383,0 7.08661,3.17279 7.08661,7.08662 z"
       transform="translate(-88.907531,343.89472)" />
    <path
       style="fill:none;stroke:#000000;stroke-width:0.61605215px;stroke-linecap:butt;stroke-linejoin:miter;stroke-opacity:1"
       d="m 428.27443,577.54982 21.51611,0"
       id="path3023-2-8-7-9"
       inkscape:connector-curvature="0" />
    <path
       style="opacity:0.98999999;fill:none;stroke:#000000;stroke-width:0.5;stroke-linecap:butt;stroke-linejoin:miter;stroke-miterlimit:4;stroke-opacity:1;stroke-dasharray:none"
       d="m 439.30335,566.92536 0,21.25984"
       id="path3223-8-48"
       inkscape:connector-curvature="0" />
    <path
       sodipodi:type="arc"
       style="fill:#ffff84;fill-opacity:1"
       id="path3024-1-1-8"
       sodipodi:cx="527.95276"
       sodipodi:cy="233.85825"
       sodipodi:rx="7.0866141"
       sodipodi:ry="7.0866141"
       d="m 535.03937,233.85825 c 0,3.91382 -3.17278,7.08661 -7.08661,7.08661 -3.91383,0 -7.08662,-3.17279 -7.08662,-7.08661 0,-3.91383 3.17279,-7.08662 7.08662,-7.08662 3.91383,0 7.08661,3.17279 7.08661,7.08662 z"
       transform="translate(-315.49658,343.4441)" />
    <path
       style="fill:none;stroke:#000000;stroke-width:0.61605215px;stroke-linecap:butt;stroke-linejoin:miter;stroke-opacity:1"
       d="m 201.86397,577.63491 21.51611,0"
       id="path3023-2-8-7-7-2"
       inkscape:connector-curvature="0" />
    <path
       style="opacity:0.98999999;fill:none;stroke:#000000;stroke-width:0.5;stroke-linecap:butt;stroke-linejoin:miter;stroke-miterlimit:4;stroke-opacity:1;stroke-dasharray:none"
       d="m 212.53575,566.92116 0,21.25984"
       id="path3223-8-4-4"
       inkscape:connector-curvature="0" />
    <path
       sodipodi:type="arc"
       style="fill:#ffff84;fill-opacity:1"
       id="path3024-1-0-5"
       sodipodi:cx="527.95276"
       sodipodi:cy="233.85825"
       sodipodi:rx="7.0866141"
       sodipodi:ry="7.0866141"
       d="m 535.03937,233.85825 c 0,3.91382 -3.17278,7.08661 -7.08661,7.08661 -3.91383,0 -7.08662,-3.17279 -7.08662,-7.08661 0,-3.91383 3.17279,-7.08662 7.08662,-7.08662 3.91383,0 7.08661,3.17279 7.08661,7.08662 z"
       transform="translate(-443.05877,343.72247)" />
    <path
       style="fill:none;stroke:#000000;stroke-width:0.61605215px;stroke-linecap:butt;stroke-linejoin:miter;stroke-opacity:1"
       d="m 74.123206,577.37757 21.516109,0"
       id="path3023-2-8-7-9-5"
       inkscape:connector-curvature="0" />
    <path
       style="opacity:0.98999999;fill:none;stroke:#000000;stroke-width:0.5;stroke-linecap:butt;stroke-linejoin:miter;stroke-miterlimit:4;stroke-opacity:1;stroke-dasharray:none"
       d="m 85.152125,566.75311 0,21.25984"
       id="path3223-8-48-1"
       inkscape:connector-curvature="0" />
    <path
       style="fill:none;stroke:#000000;stroke-width:1px;stroke-linecap:butt;stroke-linejoin:miter;stroke-opacity:1"
       d="m 326.3776,539.9824 0,88.58267"
       id="path3334"
       inkscape:connector-curvature="0" />
    <path
       style="fill:#ff9955;stroke:#000000;stroke-width:1.11969399px;stroke-linecap:butt;stroke-linejoin:miter;stroke-opacity:1"
       d="m 319.49749,689.76122 0,111.05738"
       id="path3334-1"
       inkscape:connector-curvature="0" />
    <path
       style="fill:#999999;stroke:#000000;stroke-width:1px;stroke-linecap:butt;stroke-linejoin:miter;stroke-opacity:1"
       d="m 169.73931,718.52079 116.27868,0 0,-63.77952 85.03937,0 0,63.77952 116.92914,0 0,85.03937 0,31.88977 -116.92914,0 -81.49606,0 -120.47244,0 0.65045,-31.88977 z"
       id="path3457"
       inkscape:connector-curvature="0"
       sodipodi:nodetypes="ccccccccccccc" />
    <path
       style="fill:#ff9955;stroke:#000000;stroke-width:1.02830231px;stroke-linecap:butt;stroke-linejoin:miter;stroke-opacity:1"
       d="m 269.19571,761.45481 119.89483,0"
       id="path3461"
       inkscape:connector-curvature="0" />
    <path
       style="fill:#ff9955;stroke:#000000;stroke-width:1px;stroke-linecap:butt;stroke-linejoin:miter;stroke-opacity:1"
       d="m 285.99209,740.22559 85.03937,0"
       id="path3463"
       inkscape:connector-curvature="0" />
    <path
       style="fill:#ff9955;stroke:#000000;stroke-width:1.16971385px;stroke-linecap:butt;stroke-linejoin:miter;stroke-opacity:1"
       d="m 386.61236,782.61901 -116.35345,0"
       id="path3465"
       inkscape:connector-curvature="0" />
    <path
       style="fill:#ff9955;stroke:#000000;stroke-width:1.23056328px;stroke-linecap:butt;stroke-linejoin:miter;stroke-opacity:1"
       d="m 286.03991,803.26666 85.84929,0"
       id="path3467"
       inkscape:connector-curvature="0"
       sodipodi:nodetypes="cc" />
    <path
       style="fill:#ff9955;stroke:#000000;stroke-width:1px;stroke-linecap:butt;stroke-linejoin:miter;stroke-opacity:1"
       d="m 300.41786,722.38279 56.69291,0"
       id="path3469"
       inkscape:connector-curvature="0" />
    <path
       style="fill:#ff9955;stroke:#000000;stroke-width:1px;stroke-linecap:butt;stroke-linejoin:miter;stroke-opacity:1"
       d="m 328.63804,718.83948 0,85.03937"
       id="path3471"
       inkscape:connector-curvature="0" />
    <path
       style="fill:#ff9955;stroke:#000000;stroke-width:1px;stroke-linecap:butt;stroke-linejoin:miter;stroke-opacity:1"
       d="m 350.03192,719.5971 0,85.03937"
       id="path3473"
       inkscape:connector-curvature="0" />
    <path
       style="fill:#ff9955;stroke:#000000;stroke-width:1px;stroke-linecap:butt;stroke-linejoin:miter;stroke-opacity:1"
       d="m 307.11789,719.84964 0,85.03937"
       id="path3475"
       inkscape:connector-curvature="0" />
    <path
       style="fill:#ff9955;stroke:#000000;stroke-width:1.14631975px;stroke-linecap:butt;stroke-linejoin:miter;stroke-opacity:1"
       d="m 290.16675,737.34439 0,65.18511"
       id="path3479"
       inkscape:connector-curvature="0" />
    <path
       style="fill:#ff9955;stroke:#000000;stroke-width:1.12569892px;stroke-linecap:butt;stroke-linejoin:miter;stroke-opacity:1"
       d="m 368.1195,737.31877 0,67.35108"
       id="path3481"
       inkscape:connector-curvature="0" />
    <path
       style="fill:#ff9955;stroke:#000000;stroke-width:1.44316804px;stroke-linecap:butt;stroke-linejoin:miter;stroke-opacity:1"
       d="m 271.9145,755.19273 0,29.51906"
       id="path3485"
       inkscape:connector-curvature="0" />
    <path
       style="fill:#ff9955;stroke:#000000;stroke-width:1.44795465px;stroke-linecap:butt;stroke-linejoin:miter;stroke-opacity:1"
       d="m 384.94318,755.43648 0,29.71521"
       id="path3487"
       inkscape:connector-curvature="0" />
    <path
       style="fill:#ff9955;stroke:#000000;stroke-width:1px;stroke-linecap:butt;stroke-linejoin:miter;stroke-opacity:1"
       d="m 328.789,658.34166 0,21.25983"
       id="path3489-1-0"
       inkscape:connector-curvature="0" />
    <path
       style="fill:#ff9955;stroke:#000000;stroke-width:1px;stroke-linecap:butt;stroke-linejoin:miter;stroke-opacity:1"
       d="m 319.05194,673.07872 17.71653,0"
       id="path3493-4-9"
       inkscape:connector-curvature="0" />
    <path
       style="fill:#ff9955;stroke:#000000;stroke-width:1px;stroke-linecap:butt;stroke-linejoin:miter;stroke-opacity:1"
       d="m 186.71082,750.65324 0,21.25983"
       id="path3489-1-0-7"
       inkscape:connector-curvature="0" />
    <path
       style="fill:#ff9955;stroke:#000000;stroke-width:1px;stroke-linecap:butt;stroke-linejoin:miter;stroke-opacity:1"
       d="m 176.0809,761.28316 17.71653,0"
       id="path3493-4-9-3"
       inkscape:connector-curvature="0" />
    <path
       style="fill:#ff9955;stroke:#000000;stroke-width:1px;stroke-linecap:butt;stroke-linejoin:miter;stroke-opacity:1"
       d="m 470.92061,750.6448 0,21.25984"
       id="path3489-1-0-72"
       inkscape:connector-curvature="0" />
    <path
       style="fill:#ff9955;stroke:#000000;stroke-width:1px;stroke-linecap:butt;stroke-linejoin:miter;stroke-opacity:1"
       d="m 460.29069,761.27473 17.71652,0"
       id="path3493-4-9-6"
       inkscape:connector-curvature="0" />
    <path
       style="fill:#ff9955;stroke:#000000;stroke-width:1px;stroke-linecap:butt;stroke-linejoin:miter;stroke-opacity:1"
       d="m 403.41639,806.91589 0,21.25983"
       id="path3489-1-0-0"
       inkscape:connector-curvature="0" />
    <path
       style="fill:#ff9955;stroke:#000000;stroke-width:1px;stroke-linecap:butt;stroke-linejoin:miter;stroke-opacity:1"
       d="m 388.67933,817.54581 17.71653,0"
       id="path3493-4-9-1"
       inkscape:connector-curvature="0" />
    <path
       style="fill:#ff9955;stroke:#000000;stroke-width:1px;stroke-linecap:butt;stroke-linejoin:miter;stroke-opacity:1"
       d="m 254.33596,806.95246 0,21.25983"
       id="path3489-1-0-6"
       inkscape:connector-curvature="0" />
    <path
       style="fill:#ff9955;stroke:#000000;stroke-width:1px;stroke-linecap:butt;stroke-linejoin:miter;stroke-opacity:1"
       d="m 247.0989,817.58238 17.71653,0"
       id="path3493-4-9-5"
       inkscape:connector-curvature="0" />
    <path
       sodipodi:type="arc"
       style="opacity:0.98999999;fill:#008000;fill-opacity:0.5205479;stroke-width:0.5;stroke-miterlimit:4;stroke-dasharray:none"
       id="path3569"
       sodipodi:cx="147.30746"
       sodipodi:cy="927.65875"
       sodipodi:rx="76.441322"
       sodipodi:ry="59.548565"
       d="m 223.74879,927.65875 a 76.441322,59.548565 0 1 1 -152.882648,0 76.441322,59.548565 0 1 1 152.882648,0 z"
       transform="matrix(1.1548724,0,0,1.4894978,158.22167,-616.74996)" />
  </g>
</svg>
